<svg width="33" height="33" viewBox="0 0 33 33" fill="none" xmlns="http://www.w3.org/2000/svg">
<path d="M4.5 8.60107V18.6011" stroke="#FDB827" stroke-linecap="round" stroke-linejoin="round"/>
<path d="M7.27502 27.601C8.2756 26.0663 9.64325 24.8055 11.2541 23.9328C12.8649 23.0601 14.668 22.603 16.5 22.603C18.3321 22.603 20.1352 23.0601 21.746 23.9328C23.3568 24.8055 24.7244 26.0663 25.725 27.601" stroke="#FDB827" stroke-linecap="round" stroke-linejoin="round"/>
<path d="M28.5 8.60107L16.5 12.6011L4.5 8.60107L16.5 4.60107L28.5 8.60107Z" stroke="#FDB827" stroke-linecap="round" stroke-linejoin="round"/>
<path d="M21.6625 10.876C22.5798 11.8777 23.1859 13.1247 23.4068 14.4648C23.6277 15.805 23.454 17.1805 22.9067 18.4237C22.3595 19.6668 21.4624 20.7239 20.3248 21.4661C19.1872 22.2082 17.8583 22.6034 16.5 22.6034C15.1417 22.6034 13.8128 22.2082 12.6752 21.4661C11.5376 20.7239 10.6405 19.6668 10.0933 18.4237C9.54604 17.1805 9.37229 15.805 9.59322 14.4648C9.81414 13.1247 10.4202 11.8777 11.3375 10.876" stroke="#FDB827" stroke-linecap="round" stroke-linejoin="round"/>
</svg>
