<svg width="102" height="61" viewBox="0 0 102 61" fill="none" xmlns="http://www.w3.org/2000/svg">
<path d="M49.3186 13.7298L49.3259 47.2411C49.3259 47.5046 49.3332 47.7681 49.3478 48.0298C49.348 48.1522 49.44 48.2547 49.5612 48.2678C49.6759 48.286 49.7918 48.2952 49.9079 48.2952H56.7365L56.7947 48.295C57.1513 48.2936 57.335 48.2929 57.4297 48.2007C57.5303 48.1027 57.5302 47.9014 57.5302 47.486L57.5301 46.919C57.5192 43.1721 57.5192 39.4253 57.5301 35.6784C57.5306 35.5598 57.5229 35.4402 57.5151 35.3203C57.493 34.9774 57.4707 34.6326 57.6396 34.3058C57.9741 34.1808 58.3188 34.198 58.6622 34.2152C58.7814 34.2212 58.9004 34.2271 59.0188 34.2271H64.1837C64.6325 34.2253 64.6963 34.1722 64.7802 33.7641C64.8164 33.5926 64.8353 33.4178 64.8368 33.2425V27.7101C64.8312 27.5064 64.8037 27.3039 64.7547 27.1061C64.6762 26.7657 64.6124 26.7145 64.2913 26.698H58.5956C58.5177 26.698 58.4399 26.6994 58.3621 26.7009C58.2064 26.7037 58.0507 26.7066 57.895 26.698C57.6232 26.698 57.552 26.612 57.5301 26.332C57.5283 26.3027 57.5283 26.2734 57.5301 26.2442V20.7996C57.532 20.4518 57.6141 20.375 57.9333 20.3585H64.7675C65.001 20.3585 65.2345 20.3548 65.4662 20.342C65.6207 20.342 65.7461 20.217 65.7472 20.062C65.7599 19.8296 65.7599 19.5953 65.7599 19.3611V13.653C65.7599 13.5795 65.7603 13.5115 65.7606 13.4484C65.7628 13.0504 65.7639 12.8506 65.6648 12.7514C65.5655 12.6519 65.3657 12.6529 64.9655 12.6549C64.9048 12.6552 64.8395 12.6555 64.7693 12.6555H50.4132C50.3041 12.6555 50.2057 12.6546 50.1171 12.6537C49.718 12.6496 49.5166 12.6476 49.4157 12.7473C49.313 12.8488 49.3144 13.0558 49.3174 13.4736C49.318 13.5515 49.3186 13.6367 49.3186 13.7298Z" fill="#0081FE"/>
<path d="M76.3815 36.447V26.6102C76.4055 25.9665 76.3848 25.322 76.3194 24.6812C76.2991 24.4188 76.3071 24.155 76.3432 23.8943C76.4289 22.8145 76.449 21.7311 76.4271 20.6495C76.4271 20.3036 76.3468 20.2304 76.0093 20.2286H72.0705C71.9196 20.2286 71.7872 20.2305 71.671 20.2321C71.2491 20.2382 71.0408 20.2412 70.9393 20.1386C70.8404 20.0386 70.8428 19.8384 70.8477 19.443C70.8491 19.3234 70.8508 19.1859 70.8499 19.028C70.8439 17.8372 70.8459 16.6464 70.8479 15.4556L70.8479 15.4431C70.8489 14.8519 70.8499 14.2607 70.8499 13.6694C70.8499 13.4352 70.8499 13.2009 70.8645 12.9685C70.8611 12.8951 70.8871 12.8233 70.9369 12.7693C70.9866 12.7153 71.0558 12.6835 71.1291 12.6812C71.3316 12.6665 71.5359 12.6629 71.7402 12.6629H89.2543C90.1537 12.6629 90.1665 12.6629 90.1665 13.5981V19.3062C90.1665 19.5112 90.1665 19.7161 90.1501 19.9211C90.153 19.9953 90.1261 20.0676 90.0753 20.1217C90.0245 20.1758 89.9541 20.207 89.8801 20.2084C89.6757 20.2212 89.4714 20.2267 89.2689 20.2286H85.6694C85.4359 20.2286 85.2024 20.2286 84.9707 20.2414C84.8181 20.233 84.6868 20.3484 84.6751 20.5013C84.6632 20.588 84.6559 20.6754 84.6532 20.763C84.6425 21.2579 84.6264 21.753 84.6102 22.2481C84.5737 23.3622 84.5373 24.4766 84.5638 25.589C84.6633 29.8627 84.6454 34.1364 84.6275 38.4106L84.6275 38.4139C84.6188 40.4899 84.6101 42.566 84.6149 44.6423C84.6149 45.2712 84.5972 45.9028 84.5795 46.5346C84.5676 46.9559 84.5558 47.3784 84.5492 47.7993C84.5401 48.2824 84.489 48.3336 83.9745 48.3355H79.7785C78.8152 48.3355 77.8519 48.3355 76.8886 48.319C76.4909 48.319 76.4307 48.2513 76.407 47.867C76.3888 47.5467 76.3888 47.2228 76.3888 46.9007C76.3839 43.4161 76.3815 39.9316 76.3815 36.447Z" fill="#0081FE"/>
<path d="M14.9911 13.8049L14.9965 47.8761C15.0129 48.2641 15.0622 48.3062 15.4818 48.3227H28.4367C28.5049 48.3227 28.5731 48.3239 28.6412 48.3251C28.7772 48.3275 28.913 48.33 29.0479 48.3227C29.4037 48.308 29.4657 48.2513 29.4821 47.92V41.0699C29.4812 40.5174 29.505 40.2609 29.3885 40.1427C29.2704 40.0228 29.0081 40.0451 28.4294 40.0451H23.7025C23.1552 40.0432 23.0877 39.9755 23.0749 39.4539C23.053 38.7512 23.053 38.0484 23.053 37.3456V13.8927C23.053 13.8049 23.0542 13.717 23.0554 13.6292C23.0579 13.4535 23.0603 13.2778 23.053 13.1021C23.0366 12.7269 22.9745 12.672 22.5695 12.6555H16.1787C15.5077 12.6583 15.2116 12.6191 15.0828 12.7475C14.9567 12.8734 14.9911 13.1601 14.9911 13.8049Z" fill="#0081FE"/>
<path fill-rule="evenodd" clip-rule="evenodd" d="M1.66395 60.6558C1.52751 60.6558 1.40691 60.6574 1.30034 60.6587C0.888557 60.664 0.686248 60.6666 0.588861 60.5668C0.494846 60.4705 0.498572 60.2788 0.505896 59.902C0.508237 59.7815 0.510946 59.6421 0.510946 59.4809C0.503649 40.4818 0.5 21.4804 0.5 2.47645V1.33445C0.5 0.639011 0.516419 0.61705 1.24435 0.602409H99.8339C99.9255 0.602409 100.011 0.602026 100.09 0.60167C100.623 0.599268 100.877 0.598121 100.997 0.724615C101.106 0.840247 101.103 1.06254 101.096 1.48804C101.095 1.60377 101.093 1.7358 101.093 1.88349V59.415C101.093 59.5734 101.095 59.7118 101.097 59.8327C101.104 60.2445 101.107 60.4538 101.005 60.5584C100.899 60.666 100.681 60.6631 100.238 60.6573C100.115 60.6556 99.975 60.6538 99.8156 60.654L1.66395 60.6558ZM93.5799 54.3291C93.87 54.3291 94.1619 54.32 94.4538 54.3017C94.5765 54.2998 94.6761 54.2015 94.68 54.0784C94.6982 53.7874 94.711 53.4946 94.711 53.2018V7.43972C94.6928 7.09383 94.6235 7.01696 94.3042 6.99866C94.0907 6.98818 93.8748 6.98873 93.6594 6.98927L93.5161 6.98951H44.2213C44.0712 6.98951 43.9389 6.98766 43.8222 6.98603C43.3879 6.97994 43.1709 6.97691 43.0641 7.08387C42.9574 7.19062 42.9604 7.40697 42.9664 7.83926C42.968 7.96041 42.97 8.09853 42.9698 8.25595V38.9086C42.9698 39.2014 42.9643 39.4942 42.9533 39.787C42.9558 39.8609 42.9283 39.9326 42.877 39.9858C42.8258 40.0389 42.7552 40.0689 42.6815 40.0688C42.487 40.0826 42.2924 40.0836 42.0979 40.0846L41.9809 40.0853H36.1156C35.9716 40.0853 35.8448 40.0871 35.7333 40.0887C35.3233 40.0946 35.119 40.0975 35.0186 39.9968C34.9188 39.8968 34.9215 39.6945 34.9268 39.2914C34.9282 39.187 34.9297 39.069 34.9297 38.936V8.10771C34.9297 8.00469 34.9306 7.9111 34.9313 7.82609C34.9351 7.41475 34.937 7.20377 34.8327 7.09673C34.7235 6.98461 34.4978 6.98591 34.0358 6.98858C33.9587 6.98903 33.8749 6.98951 33.784 6.98951H9.51974C9.13371 6.98951 8.74767 6.97864 8.36236 6.9678C8.22324 6.96388 8.0842 6.95997 7.9453 6.95657C7.66617 6.95657 7.58042 7.0133 7.58042 7.30795C7.564 7.92287 7.55488 8.53596 7.55488 9.15088V52.1879C7.55488 52.51 7.55488 52.8321 7.56583 53.1542C7.57088 53.3257 7.57171 53.4724 7.57242 53.5978C7.57444 53.9526 7.57549 54.1372 7.66827 54.2323C7.76889 54.3355 7.97742 54.3335 8.41213 54.3293C8.5098 54.3283 8.61889 54.3273 8.74073 54.3273L93.5799 54.3291Z" fill="#0081FE"/>
</svg>
