<svg width="17" height="18" viewBox="0 0 17 18" fill="none" xmlns="http://www.w3.org/2000/svg">
<path d="M10.2733 4.36696C10.9733 4.50354 11.6167 4.84592 12.1211 5.35028C12.6254 5.85463 12.9678 6.49801 13.1044 7.19808M10.2733 1.5C11.7277 1.66158 13.084 2.31291 14.1194 3.34704C15.1549 4.38118 15.8079 5.73665 15.9713 7.19091M15.2546 12.9105V15.0607C15.2554 15.2603 15.2145 15.4579 15.1345 15.6408C15.0546 15.8237 14.9373 15.9879 14.7902 16.1228C14.6431 16.2578 14.4695 16.3605 14.2804 16.4244C14.0913 16.4884 13.8909 16.5121 13.6921 16.4942C11.4866 16.2545 9.36801 15.5009 7.50664 14.2938C5.77488 13.1934 4.30664 11.7251 3.20621 9.99336C1.9949 8.12353 1.24108 5.99467 1.00582 3.77923C0.987907 3.58103 1.01146 3.38127 1.07498 3.19267C1.1385 3.00407 1.2406 2.83076 1.37477 2.68378C1.50894 2.5368 1.67225 2.41937 1.85429 2.33896C2.03633 2.25855 2.23312 2.21693 2.43213 2.21674H4.58235C4.93018 2.21332 5.2674 2.33649 5.53114 2.56331C5.79488 2.79012 5.96714 3.1051 6.01582 3.44953C6.10658 4.13765 6.27489 4.81329 6.51754 5.46357C6.61397 5.72011 6.63484 5.99891 6.57768 6.26695C6.52052 6.53498 6.38771 6.78101 6.19501 6.97589L5.28475 7.88615C6.30507 9.68053 7.7908 11.1663 9.58519 12.1866L10.4954 11.2763C10.6903 11.0836 10.9363 10.9508 11.2044 10.8937C11.4724 10.8365 11.7512 10.8574 12.0078 10.9538C12.658 11.1964 13.3337 11.3648 14.0218 11.4555C14.37 11.5046 14.6879 11.68 14.9152 11.9483C15.1425 12.2165 15.2633 12.559 15.2546 12.9105Z" stroke="white" stroke-width="1.2" stroke-linecap="round" stroke-linejoin="round"/>
</svg>
